<svg width="36" height="39" viewBox="0 0 36 39" fill="none" xmlns="http://www.w3.org/2000/svg">
<path d="M31.2048 3.90061H23.0526C22.2335 1.63825 20.0881 0 17.5527 0C15.0173 0 12.872 1.63825 12.0529 3.90061H3.90061C1.75527 3.90061 0 5.65588 0 7.80121V35.1055C0 37.2508 1.75527 39.0061 3.90061 39.0061H31.2048C33.3502 39.0061 35.1055 37.2508 35.1055 35.1055V7.80121C35.1055 5.65588 33.3502 3.90061 31.2048 3.90061ZM17.5527 3.90061C18.6254 3.90061 19.503 4.77824 19.503 5.85091C19.503 6.92358 18.6254 7.80121 17.5527 7.80121C16.4801 7.80121 15.6024 6.92358 15.6024 5.85091C15.6024 4.77824 16.4801 3.90061 17.5527 3.90061ZM21.4533 31.2049H7.80121V27.3042H21.4533V31.2049ZM27.3042 23.4036H7.80121V19.503H27.3042V23.4036ZM27.3042 15.6024H7.80121V11.7018H27.3042V15.6024Z" fill="white"/>
</svg>
